<?xml version="1.0" encoding="UTF-8"?>
<svg version="1.1" xmlns="http://www.w3.org/2000/svg" width="256" height="256">
<path d="M0 0 C84.48 0 168.96 0 256 0 C256 84.48 256 168.96 256 256 C171.52 256 87.04 256 0 256 C0 171.52 0 87.04 0 0 Z " fill="#F5F5F5" transform="translate(0,0)"/>
<path d="M0 0 C84.48 0 168.96 0 256 0 C256 84.48 256 168.96 256 256 C171.52 256 87.04 256 0 256 C0 171.52 0 87.04 0 0 Z M16 16 C16 89.92 16 163.84 16 240 C89.92 240 163.84 240 240 240 C240 166.08 240 92.16 240 16 C166.08 16 92.16 16 16 16 Z " fill="#32CD32" transform="translate(0,0)"/>
<path d="M0 0 C8.25 0 16.5 0 25 0 C25 11.55 25 23.1 25 35 C16.75 35 8.5 35 0 35 C0 33.35 0 31.7 0 30 C6.6 30 13.2 30 20 30 C20 28.35 20 26.7 20 25 C13.4 25 6.8 25 0 25 C0 16.75 0 8.5 0 0 Z " fill="#32CD32" transform="translate(58,191)"/>
<path d="M0 0 C8.25 0 16.5 0 25 0 C25 4.95 25 9.9 25 15 C18.4 15 11.8 15 5 15 C5 16.65 5 18.3 5 20 C11.6 20 18.2 20 25 20 C25 21.65 25 23.3 25 25 C16.75 25 8.5 25 0 25 C0 16.75 0 8.5 0 0 Z " fill="#32CD32" transform="translate(148,191)"/>
<path d="M0 0 C8.25 0 16.5 0 25 0 C25 8.25 25 16.5 25 25 C16.75 25 8.5 25 0 25 C0 20.05 0 15.1 0 10 C6.6 10 13.2 10 20 10 C20 8.35 20 6.7 20 5 C13.4 5 6.8 5 0 5 C0 3.35 0 1.7 0 0 Z " fill="#32CD32" transform="translate(88,191)"/>
<path d="M0 0 C8.25 0 16.5 0 25 0 C25 1.65 25 3.3 25 5 C18.4 5 11.8 5 5 5 C5 6.65 5 8.3 5 10 C11.6 10 18.2 10 25 10 C25 14.95 25 19.9 25 25 C16.75 25 8.5 25 0 25 C0 23.35 0 21.7 0 20 C6.6 20 13.2 20 20 20 C20 18.35 20 16.7 20 15 C13.4 15 6.8 15 0 15 C0 10.05 0 5.1 0 0 Z " fill="#32CD32" transform="translate(203,191)"/>
<path d="M0 0 C8.25 0 16.5 0 25 0 C25 8.25 25 16.5 25 25 C23.35 25 21.7 25 20 25 C20 18.4 20 11.8 20 5 C18.35 5 16.7 5 15 5 C15 11.6 15 18.2 15 25 C13.35 25 11.7 25 10 25 C10 18.4 10 11.8 10 5 C8.35 5 6.7 5 5 5 C5 11.6 5 18.2 5 25 C3.35 25 1.7 25 0 25 C0 16.75 0 8.5 0 0 Z " fill="#32CD32" transform="translate(118,191)"/>
<path d="M0 0 C4.95 0 9.9 0 15 0 C15 4.95 15 9.9 15 15 C10.05 15 5.1 15 0 15 C0 10.05 0 5.1 0 0 Z " fill="#F5F5F5" transform="translate(63,196)"/>
<path d="M0 0 C1.65 0 3.3 0 5 0 C5 11.55 5 23.1 5 35 C1.7 35 -1.6 35 -5 35 C-5 33.35 -5 31.7 -5 30 C-3.35 30 -1.7 30 0 30 C0 20.1 0 10.2 0 0 Z " fill="#32CD32" transform="translate(193,191)"/>
<path d="M0 0 C4.95 0 9.9 0 15 0 C15 1.65 15 3.3 15 5 C10.05 5 5.1 5 0 5 C0 3.35 0 1.7 0 0 Z " fill="#F5F5F5" transform="translate(93,206)"/>
<path d="M0 0 C4.95 0 9.9 0 15 0 C15 1.65 15 3.3 15 5 C10.05 5 5.1 5 0 5 C0 3.35 0 1.7 0 0 Z " fill="#F5F5F5" transform="translate(153,196)"/>
<path d="M0 0 C1.65 0 3.3 0 5 0 C5 1.65 5 3.3 5 5 C3.35 5 1.7 5 0 5 C0 3.35 0 1.7 0 0 Z " fill="#32CD32" transform="translate(178,211)"/>
<path d="M0 0 C1.65 0 3.3 0 5 0 C5 1.65 5 3.3 5 5 C3.35 5 1.7 5 0 5 C0 3.35 0 1.7 0 0 Z " fill="#32CD32" transform="translate(193,181)"/>
</svg>
